HIERARCHY
ROOT Hips
{
	OFFSET -3.958830 18.904000 13.208200
	CHANNELS 6 Xposition Yposition Zposition Zrotation Yrotation Xrotation 
	JOINT LHipJoint
	{
		OFFSET 0.000000 0.000000 0.000000
		CHANNELS 3 Zrotation Yrotation Xrotation
		JOINT LeftUpLeg
		{
			OFFSET 1.800000 -1.400000 0.085000
			CHANNELS 3 Zrotation Yrotation Xrotation
			JOINT LeftLeg
			{
				OFFSET 2.215000 -6.000000 0.000000
				CHANNELS 3 Zrotation Yrotation Xrotation
				JOINT LeftFoot
				{
					OFFSET 2.500000 -6.900000 0.000000
					CHANNELS 3 Zrotation Yrotation Xrotation
					JOINT LeftToeBase
					{
						OFFSET 0.200000 -0.500000 1.950000
						CHANNELS 3 Zrotation Yrotation Xrotation
						End Site
						{
							OFFSET 0.000000 0.000000 0.000000
						}
					}
				}
			}
		}
	}
	JOINT RHipJoint
	{
		OFFSET 0.000000 0.000000 0.000000
		CHANNELS 3 Zrotation Yrotation Xrotation
		JOINT RightUpLeg
		{
			OFFSET -1.800000 -1.400000 0.085000
			CHANNELS 3 Zrotation Yrotation Xrotation
			JOINT RightLeg
			{
				OFFSET -2.215000 -6.000000 0.000000
				CHANNELS 3 Zrotation Yrotation Xrotation
				JOINT RightFoot
				{
					OFFSET -2.500000 -6.900000 0.000000
					CHANNELS 3 Zrotation Yrotation Xrotation
					JOINT RightToeBase
					{
						OFFSET -0.200000 -0.500000 1.950000
						CHANNELS 3 Zrotation Yrotation Xrotation
						End Site
						{
							OFFSET 0.000000 0.000000 0.000000
						}
					}
				}
			}
		}
	}
	JOINT LowerBack
	{
		OFFSET 0.000000 0.000000 0.000000
		CHANNELS 3 Zrotation Yrotation Xrotation
		JOINT Spine
		{
			OFFSET -0.087000 1.940000 -0.288900
			CHANNELS 3 Zrotation Yrotation Xrotation
			JOINT Spine1
			{
				OFFSET 0.000000 1.950000 0.060000
				CHANNELS 3 Zrotation Yrotation Xrotation
				JOINT Neck
				{
					OFFSET 0.000000 0.000000 0.000000
					CHANNELS 3 Zrotation Yrotation Xrotation
					JOINT Neck1
					{
						OFFSET 0.000000 1.600000 0.340000
						CHANNELS 3 Zrotation Yrotation Xrotation
						JOINT Head
						{
							OFFSET 0.000000 1.667000 -0.240000
							CHANNELS 3 Zrotation Yrotation Xrotation
							End Site
							{
								OFFSET 0.000000 0.000000 0.000000
							}
						}
					}
				}
				JOINT LeftShoulder
				{
					OFFSET 0.000000 0.000000 0.000000
					CHANNELS 3 Zrotation Yrotation Xrotation
					JOINT LeftArm
					{
						OFFSET 2.700000 1.550000 -0.730000
						CHANNELS 3 Zrotation Yrotation Xrotation
						JOINT LeftForeArm
						{
							OFFSET 5.450000 0.000000 0.000000
							CHANNELS 3 Zrotation Yrotation Xrotation
							JOINT LeftHand
							{
								OFFSET 3.450000 0.000000 0.000000
								CHANNELS 3 Zrotation Yrotation Xrotation
								JOINT LeftHandIndex1
								{
									OFFSET 0.750000 0.000000 0.000000
									CHANNELS 3 Zrotation Yrotation Xrotation
									End Site
									{
										OFFSET 0.000000 0.000000 0.000000
									}
								}
							}
						}
					}
				}
				JOINT RightShoulder
				{
					OFFSET 0.000000 0.000000 0.000000
					CHANNELS 3 Zrotation Yrotation Xrotation
					JOINT RightArm
					{
						OFFSET -2.700000 1.550000 -0.730000
						CHANNELS 3 Zrotation Yrotation Xrotation
						JOINT RightForeArm
						{
							OFFSET -5.450000 0.000000 0.000000
							CHANNELS 3 Zrotation Yrotation Xrotation
							JOINT RightHand
							{
								OFFSET -3.450000 0.000000 0.000000
								CHANNELS 3 Zrotation Yrotation Xrotation
								JOINT RightHandIndex1
								{
									OFFSET -0.750000 0.000000 0.000000
									CHANNELS 3 Zrotation Yrotation Xrotation
									End Site
									{
										OFFSET 0.000000 0.000000 0.000000
									}
								}
							}
						}
					}
				}
			}
		}
	}
}
MOTION
Frames: 4
Frame Time: 0.016667
1.977090 17.052100 -0.244870 1.871246 -15.841423 3.119059 -14.930584 12.530524 4.512389 6.934177 -5.278293 -35.358758 -9.777354 4.788276 10.759794 -1.081697 3.558608 3.310909 0.087160 -0.226780 -0.168420 18.406353 -10.715463 2.552379 -10.665631 3.710869 -21.293766 6.654098 -5.905766 21.450647 -0.001604 -3.505415 3.267368 0.029460 0.570040 0.068760 -4.002866 -1.636513 -8.073581 12.015035 0.387506 18.496345 -3.367856 4.181019 9.858168 0.532763 -11.101269 -17.561406 -29.207099 13.888695 41.045626 2.050800 0.640510 -7.002910 -11.188683 -25.183717 8.829942 -59.797006 -10.842802 -2.714695 -0.592516 -17.188582 -2.397160 -3.822836 2.666119 0.708280 0.191660 -0.258640 0.085000 11.578651 35.286251 12.951352 47.489667 14.079686 -0.865312 2.566747 5.183524 0.390308 2.020859 -0.996286 -0.476220 0.551370 0.453150 -0.209200 
2.060340 17.059400 -0.243490 1.746403 -15.514535 3.789683 -14.861779 12.353404 4.545553 8.953736 -4.821492 -35.500278 -10.081672 4.510281 8.541759 -1.100257 3.550128 3.299992 0.105950 -0.201160 -0.131450 18.496864 -10.740647 2.546448 -10.434172 3.972456 -22.228937 5.588012 -5.630907 21.778954 -0.002819 -3.410202 3.285687 0.047060 0.537880 0.065030 -4.257998 -1.307956 -8.069871 14.033275 -0.293734 17.797224 -6.478440 4.259839 10.046361 1.486366 -10.576103 -17.485996 -27.960508 13.519300 41.755967 1.255410 0.985260 -7.491540 -10.805979 -26.630273 9.279456 -57.976385 -10.903356 -1.361265 -0.339793 -13.851117 -1.903060 -3.838663 2.642060 0.720920 0.185140 -0.238280 0.073370 8.991712 36.283999 12.620080 50.652758 15.846183 0.219122 2.859577 2.677693 0.622239 2.048053 -1.028309 -0.476780 0.552750 0.441710 -0.228830 
2.148060 17.071080 -0.236280 2.279291 -14.930609 4.553401 -14.819707 12.154527 4.614662 10.505179 -4.715609 -35.741215 -10.955658 4.512153 7.543141 -1.062728 3.656646 3.258688 0.121770 -0.177550 -0.088650 18.568734 -10.739010 2.523719 -10.895542 4.100112 -23.366322 4.832538 -5.506254 22.152286 -0.011652 -3.369331 3.284734 0.049290 0.512510 0.073470 -4.450618 -1.019961 -8.072090 15.276983 -0.803111 16.695461 -9.940418 4.304020 9.865088 2.600400 -9.777484 -17.077225 -25.957837 13.027961 42.648329 0.125460 1.602080 -7.272010 -10.453057 -27.281502 9.614413 -55.858020 -10.659562 -0.278873 -0.840436 -10.839496 -1.425047 -3.871759 2.623280 0.709830 0.190960 -0.215510 0.072030 6.024349 36.286687 11.793505 54.906922 17.723422 1.174292 3.822071 1.220705 0.791134 2.069613 -1.088948 -0.459260 0.540220 0.413860 -0.237640 
2.240210 17.089170 -0.224420 2.913315 -14.121993 5.492565 -14.780862 11.958837 4.657872 11.776780 -4.697520 -35.933814 -11.890629 4.668619 7.341935 -0.992885 3.775041 3.220101 0.153210 -0.117720 -0.056110 18.645566 -10.733351 2.492330 -11.323636 4.089388 -24.493418 4.025552 -5.307686 22.092429 -0.015664 -3.295211 3.310803 0.065740 0.486270 0.070100 -4.648055 -0.737064 -8.026758 16.590929 -1.396112 15.197608 -13.520879 4.123289 9.547007 3.625324 -9.093607 -16.364319 -24.068978 12.459714 42.950239 -1.044090 2.143450 -6.751530 -9.989342 -26.854720 9.630528 -54.094404 -10.432299 0.481539 -1.727785 -8.283061 -1.061087 -3.898061 2.624230 0.668210 0.199520 -0.198670 0.092900 3.072419 35.097889 10.538483 59.699117 19.662608 2.085012 4.778369 0.427577 0.877892 2.078857 -1.186554 -0.426270 0.522960 0.360620 -0.230110 
